<mxfile host="app.diagrams.net" modified="2023-09-18T05:14:01.926Z" agent="Mozilla/5.0 (Windows NT 10.0; Win64; x64) AppleWebKit/537.36 (KHTML, like Gecko) Chrome/116.0.0.0 Safari/537.36" version="21.7.5" etag="7-2Bb1r3d_vUxoP3j-rc" type="github">
  <diagram name="Page-1" id="DIY6WMBvEgsfTaAjM-is">
    <mxGraphModel>
      <root>
        <mxCell id="0" />
        <mxCell id="1" parent="0" />
      </root>
    </mxGraphModel>
  </diagram>
</mxfile>
